<svg xmlns="http://www.w3.org/2000/svg" xmlns:xlink="http://www.w3.org/1999/xlink" version="1.1" style="enable-background:new 0 0 84.3 20.7;" xml:space="preserve" width="352.7577639861926" height="90.37888288161275"><rect id="backgroundrect" width="100%" height="100%" x="0" y="0" fill="none" stroke="none" class="" style=""/>

<g class="currentLayer" style=""><title>Layer 1</title><path d="M147.1977915380228,83.64706063857183 V26.32547093024358 h-0.4246043682098389 l-22.9286358833313,57.32158970832825 h-8.916691732406617 L91.99922367074377,26.32547093024358 h-0.4246043682098389 v57.32158970832825 h-10.615109205245972 V5.944461256171316 H94.54684988000281 l24.627053356170652,61.99223775863647 h0.4246043682098389 l24.627053356170652,-61.99223775863647 H158.23750511147864 v77.70259938240052 L147.1977915380228,83.64706063857183 L147.1977915380228,83.64706063857183 zM218.10672102906594,83.64706063857183 h-11.039713573455812 v-9.765900468826294 h-0.4246043682098389 c-2.9722305774688733,6.793669891357422 -8.916691732406617,10.615109205245972 -17.408779096603393,10.615109205245972 c-12.313526678085326,0 -19.531800937652587,-8.067482995986937 -19.531800937652587,-21.230218410491943 V26.75007529845342 h11.46431794166565 v34.392953824996944 c0,8.492087364196777 4.246043682098389,13.162735414505006 11.888922309875488,13.162735414505006 c8.492087364196777,0 13.162735414505006,-5.944461154937744 13.162735414505006,-14.86115288734436 V26.75007529845342 h11.46431794166565 L218.10672102906594,83.64706063857183 L218.10672102906594,83.64706063857183 zM249.527444276594,25.90086656203374 c13.162735414505006,0 21.230218410491943,7.218274259567261 21.65482277870178,17.833383464813235 h-10.615109205245972 c-0.8492087364196778,-5.519856786727906 -4.670648050308228,-8.916691732406617 -11.039713573455812,-8.916691732406617 C243.1583787534464,34.81755829444035 238.91233507134802,37.78978887190923 238.91233507134802,42.46043692221746 c0,3.396834945678711 2.5476262092590347,5.944461154937744 8.492087364196777,7.218274259567261 l8.916691732406617,2.1230218410491943 c11.46431794166565,2.5476262092590347 15.710361623764038,7.218274259567261 15.710361623764038,15.2857572555542 c0,10.190504837036132 -9.341296100616455,17.408779096603393 -22.504031515121458,17.408779096603393 c-14.011944150924682,0 -22.504031515121458,-6.793669891357422 -23.353240251541138,-17.833383464813235 h11.46431794166565 c0.8492087364196778,5.944461154937744 5.095252418518066,8.916691732406617 11.888922309875488,8.916691732406617 c6.793669891357422,0 11.039713573455812,-2.9722305774688733 11.039713573455812,-7.6428786277771 c0,-3.82143931388855 -2.1230218410491943,-5.944461154937744 -8.067482995986937,-7.218274259567261 l-8.916691732406617,-2.1230218410491943 c-10.615109205245972,-2.5476262092590347 -15.710361623764038,-7.6428786277771 -15.710361623764038,-16.134965991973875 C227.8726214978922,32.69453645339116 236.36470886208897,25.90086656203374 249.527444276594,25.90086656203374 zM280.5235631559122,11.888922411109059 c0,-3.82143931388855 2.9722305774688733,-6.793669891357422 6.793669891357422,-6.793669891357422 c3.82143931388855,0 6.793669891357422,2.9722305774688733 6.793669891357422,6.793669891357422 c0,3.82143931388855 -2.9722305774688733,6.793669891357422 -6.793669891357422,6.793669891357422 C283.4957937333811,18.682592302466478 280.5235631559122,15.710361724997608 280.5235631559122,11.888922411109059 L280.5235631559122,11.888922411109059 zM281.3727718923319,26.75007529845342 h11.46431794166565 v56.89698534011841 H281.3727718923319 V26.75007529845342 zM341.2419878099192,46.28187623610601 c-1.2738131046295174,-5.944461154937744 -5.519856786727906,-11.039713573455812 -13.162735414505006,-11.039713573455812 c-8.916691732406617,0 -14.86115288734436,7.6428786277771 -14.86115288734436,19.531800937652587 c0,12.313526678085326 5.944461154937744,19.531800937652587 14.86115288734436,19.531800937652587 c7.218274259567261,0 11.46431794166565,-3.82143931388855 13.162735414505006,-10.615109205245972 h11.039713573455812 c-1.2738131046295174,11.888922309875488 -10.615109205245972,20.381009674072263 -24.202448987960818,20.381009674072263 c-16.134965991973875,0 -26.325470829010012,-11.039713573455812 -26.325470829010012,-29.297701406478883 c0,-17.833383464813235 10.190504837036132,-29.297701406478883 26.325470829010012,-29.297701406478883 c14.43654851913452,0 22.9286358833313,9.341296100616455 24.202448987960818,20.381009674072263 L341.2419878099192,46.28187623610601 L341.2419878099192,46.28187623610601 zM45.71734753587134,13.587339883948415 C42.74511695840247,16.984174829627126 38.07446890809424,19.956405407095996 33.40382085778601,19.531801038886158 C32.55461212136634,14.436548620368091 35.10223833062537,9.341296201850026 37.6498645398844,6.369065624381153 c2.9722305774688733,-3.82143931388855 8.067482995986937,-6.369065523147583 12.313526678085326,-6.369065523147583 C50.387995586179564,4.670648151541798 48.68957811334021,9.765900570059864 45.71734753587134,13.587339883948415 L45.71734753587134,13.587339883948415 zM49.96339121796973,20.381009775305838 c2.5476262092590347,0 10.190504837036132,0.8492087364196778 15.2857572555542,8.492087364196777 c-0.4246043682098389,0.4246043682098389 -8.916691732406617,5.519856786727906 -8.916691732406617,16.134965991973875 c0,12.738131046295166 11.039713573455812,16.984174728393555 11.039713573455812,16.984174728393555 c0,0.4246043682098389 -1.6984174728393555,5.944461154937744 -5.519856786727906,11.888922309875488 c-3.396834945678711,5.095252418518066 -7.218274259567261,10.190504837036132 -12.738131046295166,10.190504837036132 c-5.519856786727906,0 -7.218274259567261,-3.396834945678711 -13.587339782714844,-3.396834945678711 c-6.369065523147583,0 -8.492087364196777,3.396834945678711 -13.587339782714844,3.396834945678711 c-5.519856786727906,0 -9.765900468826294,-5.519856786727906 -13.162735414505006,-10.615109205245972 c-7.218274259567261,-10.615109205245972 -12.738131046295166,-29.72230577468872 -5.095252418518066,-42.46043682098389 c3.396834945678711,-6.369065523147583 10.190504837036132,-10.615109205245972 16.984174728393555,-10.615109205245972 c5.519856786727906,0 10.615109205245972,3.82143931388855 13.587339782714844,3.82143931388855 C37.22526017167456,24.202449089194385 43.16972132661231,19.956405407095996 49.96339121796973,20.381009775305838 L49.96339121796973,20.381009775305838 z" id="svg_1" class="selected" fill-opacity="1" fill="#b6b7b6"/></g></svg>